<svg id="Layer_1" enable-background="new 0 0 497 497" height="512" viewBox="0 0 497 497" width="512" xmlns="http://www.w3.org/2000/svg"><g><g><path d="m452.434 464.082h-407.868v-200.83c0-11.046 8.954-20 20-20h367.867c11.046 0 20 8.954 20 20v200.83z" fill="#828cb3"/><path d="m432.434 243.252h-40c11.046 0 20 8.954 20 20v200.83h40v-200.83c0-11.046-8.955-20-20-20z" fill="#717eb3"/><path d="m153.085 194.733h190.83v347.867h-190.83z" fill="#87dbff" transform="matrix(0 1 -1 0 617.167 120.167)"/><path d="m464.082 497h-431.164c-18.18 0-32.918-14.738-32.918-32.918h497c0 18.18-14.738 32.918-32.918 32.918z" fill="#828cb3"/><path d="m457 464.082c0 18.18-14.738 32.918-32.918 32.918h40c18.18 0 32.918-14.738 32.918-32.918z" fill="#717eb3"/></g><path d="m186.847 371.901c4.143 0 7.5-3.358 7.5-7.5s-3.357-7.5-7.5-7.5h-7.616l4.518-21.736c.843-4.056-1.761-8.026-5.816-8.87-4.056-.842-8.026 1.762-8.869 5.817l-5.153 24.789h-16.838l4.518-21.736c.843-4.056-1.761-8.026-5.816-8.87-4.054-.842-8.027 1.762-8.869 5.817l-5.153 24.789h-10.708c-4.143 0-7.5 3.358-7.5 7.5s3.357 7.5 7.5 7.5h7.591l-3.648 17.552h-10.674c-4.143 0-7.5 3.358-7.5 7.5s3.357 7.5 7.5 7.5h7.555l-4.627 22.258c-.843 4.056 1.761 8.026 5.816 8.87.515.107 1.028.158 1.534.158 3.479 0 6.6-2.435 7.335-5.975l5.261-25.311h16.838l-4.627 22.258c-.843 4.056 1.761 8.026 5.816 8.87.515.107 1.028.158 1.534.158 3.479 0 6.6-2.435 7.335-5.975l5.261-25.311h10.769c4.143 0 7.5-3.358 7.5-7.5s-3.357-7.5-7.5-7.5h-7.651l3.648-17.552zm-29.703 17.552h-16.838l3.648-17.552h16.838z" fill="#fff"/><path d="m378.167 388.438h-138.667c-4.143 0-7.5-3.358-7.5-7.5s3.357-7.5 7.5-7.5h138.667c4.143 0 7.5 3.358 7.5 7.5s-3.357 7.5-7.5 7.5z" fill="#fff"/><path d="m196.144 0h-178.473c-9.76 0-17.671 7.911-17.671 17.671v99.202c0 9.759 7.911 17.671 17.671 17.671h22.64l14.67 23.71 14.67-23.71h126.492c9.759 0 17.671-7.911 17.671-17.671v-99.202c.001-9.76-7.911-17.671-17.67-17.671z" fill="#8affb3"/><path d="m200.856 46.642h278.473c9.759 0 17.671 7.911 17.671 17.671v99.202c0 9.759-7.911 17.671-17.671 17.671h-22.64l-14.67 23.71-14.67-23.71h-226.493c-9.759 0-17.671-7.911-17.671-17.671v-99.203c0-9.759 7.912-17.67 17.671-17.67z" fill="#ff59ac"/><path d="m479.329 46.642h-40c9.759 0 17.671 7.911 17.671 17.671v99.202c0 9.759-7.911 17.671-17.671 17.671h-11.981l14.67 23.71 14.67-23.71h22.64c9.759 0 17.671-7.911 17.671-17.671v-99.203c.001-9.759-7.91-17.67-17.67-17.67z" fill="#fa46a0"/><path d="m337.737 165.04h-178.474c-9.759 0-17.671 7.911-17.671 17.671v99.202c0 9.759 7.911 17.671 17.671 17.671h74.64l14.67 23.71 14.67-23.71h74.492c9.759 0 17.671-7.911 17.671-17.671v-99.202c.001-9.759-7.91-17.671-17.669-17.671z" fill="#ffea00"/><g><path d="m337.737 165.04h-40c9.759 0 17.671 7.911 17.671 17.671v99.202c0 9.759-7.911 17.671-17.671 17.671h40c9.759 0 17.671-7.911 17.671-17.671v-99.202c-.001-9.759-7.912-17.671-17.671-17.671z" fill="#ffd900"/></g><g fill="#fff"><g><path d="m141.593 39.142h-92.093c-4.143 0-7.5 3.358-7.5 7.5s3.357 7.5 7.5 7.5h92.093c4.143 0 7.5-3.358 7.5-7.5s-3.358-7.5-7.5-7.5z"/><path d="m106.907 76h-57.407c-4.143 0-7.5 3.358-7.5 7.5s3.357 7.5 7.5 7.5h57.407c4.143 0 7.5-3.358 7.5-7.5s-3.357-7.5-7.5-7.5z"/></g><g><path d="m294.546 207.322h-92.092c-4.143 0-7.5 3.358-7.5 7.5s3.357 7.5 7.5 7.5h92.092c4.143 0 7.5-3.358 7.5-7.5s-3.358-7.5-7.5-7.5z"/><path d="m277.204 244.181h-57.408c-4.143 0-7.5 3.358-7.5 7.5s3.357 7.5 7.5 7.5h57.408c4.143 0 7.5-3.358 7.5-7.5s-3.357-7.5-7.5-7.5z"/></g><g><path d="m452.579 93.642c0-4.142-3.357-7.5-7.5-7.5h-212.093c-4.143 0-7.5 3.358-7.5 7.5s3.357 7.5 7.5 7.5h212.093c4.143 0 7.5-3.358 7.5-7.5z"/><path d="m445.079 123h-60.579c-4.143 0-7.5 3.358-7.5 7.5s3.357 7.5 7.5 7.5h60.579c4.143 0 7.5-3.358 7.5-7.5s-3.357-7.5-7.5-7.5z"/></g></g></g></svg>